<svg width="512" height="512" viewBox="0 0 512 512" fill="none" xmlns="http://www.w3.org/2000/svg">
  <defs>
    <linearGradient id="bg" x1="0" y1="0" x2="512" y2="512" gradientUnits="userSpaceOnUse">
      <stop stop-color="#0e2330"/>
      <stop offset="1" stop-color="#0a1622"/>
    </linearGradient>
    <linearGradient id="drop" x1="170" y1="90" x2="350" y2="430" gradientUnits="userSpaceOnUse">
      <stop stop-color="#5fe0f5"/>
      <stop offset="0.55" stop-color="#22b6e6"/>
      <stop offset="1" stop-color="#1f7fe0"/>
    </linearGradient>
    <clipPath id="dropclip">
      <path d="M256 70 C256 70 150 214 150 300 C150 362 197 410 256 410 C315 410 362 362 362 300 C362 214 256 70 256 70 Z"/>
    </clipPath>
  </defs>
  <rect width="512" height="512" rx="116" fill="url(#bg)"/>
  <path d="M256 70 C256 70 150 214 150 300 C150 362 197 410 256 410 C315 410 362 362 362 300 C362 214 256 70 256 70 Z" fill="url(#drop)"/>
  <g clip-path="url(#dropclip)">
    <path d="M120 318 Q170 296 220 318 T320 318 T420 318 V440 H120 Z" fill="#ffffff" opacity="0.22"/>
    <path d="M120 352 Q175 330 230 352 T340 352 T450 352 V470 H120 Z" fill="#ffffff" opacity="0.14"/>
  </g>
  <ellipse cx="212" cy="250" rx="22" ry="34" transform="rotate(-22 212 250)" fill="#ffffff" opacity="0.45"/>
</svg>
